HIERARCHY
ROOT root
{
	OFFSET 0.000000 0.000000 0.000000
	CHANNELS 6 Xposition Yposition Zposition Zrotation Yrotation Xrotation
	JOINT lhip
	{
		OFFSET 0.058581 -0.082280 -0.017664
		CHANNELS 3 Zrotation Yrotation Xrotation
		JOINT lknee
		{
			OFFSET 0.043451 -0.386469 0.008037
			CHANNELS 3 Zrotation Yrotation Xrotation
			JOINT lankle
			{
				OFFSET -0.014790 -0.426874 -0.037428
				CHANNELS 3 Zrotation Yrotation Xrotation
				JOINT ltoe
				{
					OFFSET 0.041054 -0.060286 0.122042
					CHANNELS 3 Zrotation Yrotation Xrotation
					End Site
					{
						OFFSET 0.000000 0.000000 0.000000
					}
				}
			}
		}
	}
	JOINT rhip
	{
		OFFSET -0.060310 -0.090513 -0.013543
		CHANNELS 3 Zrotation Yrotation Xrotation
		JOINT rknee
		{
			OFFSET -0.043257 -0.383688 -0.004843
			CHANNELS 3 Zrotation Yrotation Xrotation
			JOINT rankle
			{
				OFFSET 0.019056 -0.420046 -0.034562
				CHANNELS 3 Zrotation Yrotation Xrotation
				JOINT rtoe
				{
					OFFSET -0.034840 -0.062106 0.130323
					CHANNELS 3 Zrotation Yrotation Xrotation
					End Site
					{
						OFFSET 0.000000 0.000000 0.000000
					}
				}
			}
		}
	}
	JOINT lowerback
	{
		OFFSET 0.004439 0.124404 -0.038385
		CHANNELS 3 Zrotation Yrotation Xrotation
		JOINT upperback
		{
			OFFSET 0.004488 0.137956 0.026820
			CHANNELS 3 Zrotation Yrotation Xrotation
			JOINT chest
			{
				OFFSET -0.002265 0.056032 0.002855
				CHANNELS 3 Zrotation Yrotation Xrotation
				JOINT lowerneck
				{
					OFFSET -0.013390 0.211636 -0.033468
					CHANNELS 3 Zrotation Yrotation Xrotation
					JOINT upperneck
					{
						OFFSET 0.010113 0.088937 0.050410
						CHANNELS 3 Zrotation Yrotation Xrotation
						End Site
						{
							OFFSET 0.000000 0.000000 0.000000
						}
					}
				}
				JOINT lclavicle
				{
					OFFSET 0.071702 0.114000 -0.018898
					CHANNELS 3 Zrotation Yrotation Xrotation
					JOINT lshoulder
					{
						OFFSET 0.122921 0.045205 -0.019046
						CHANNELS 3 Zrotation Yrotation Xrotation
						JOINT lelbow
						{
							OFFSET 0.255332 -0.015649 -0.022946
							CHANNELS 3 Zrotation Yrotation Xrotation
							JOINT lwrist
							{
								OFFSET 0.265709 0.012698 -0.007375
								CHANNELS 3 Zrotation Yrotation Xrotation
								End Site
								{
									OFFSET 0.000000 0.000000 0.000000
								}
							}
						}
					}
				}
				JOINT rclavicle
				{
					OFFSET -0.082954 0.112472 -0.023707
					CHANNELS 3 Zrotation Yrotation Xrotation
					JOINT rshoulder
					{
						OFFSET -0.113228 0.046853 -0.008472
						CHANNELS 3 Zrotation Yrotation Xrotation
						JOINT relbow
						{
							OFFSET -0.260127 -0.014369 -0.031269
							CHANNELS 3 Zrotation Yrotation Xrotation
							JOINT rwrist
							{
								OFFSET -0.269108 0.006794 -0.006027
								CHANNELS 3 Zrotation Yrotation Xrotation
								End Site
								{
									OFFSET 0.000000 0.000000 0.000000
								}
							}
						}
					}
				}
			}
		}
	}
}
MOTION
Frames: 16
Frame Time: 0.033333
0.122732 0.305446 1.010319 92.806174 0.198168 84.502130 -0.950544 1.209366 5.002418 -4.012376 -8.661094 6.354100 3.709412 2.258215 -9.600858 0.000000 -0.000000 0.000000 -2.543020 -2.103332 -0.864399 -1.250160 -0.942783 16.868856 2.853541 -6.318590 -9.332408 0.000000 -0.000000 0.000000 2.016889 0.413720 10.127518 -0.315968 -0.701009 -6.106067 -0.099177 -0.528709 -1.261526 4.757297 -1.073289 -12.882438 -2.342756 -1.757182 15.653762 -15.525614 -11.519914 -5.264734 -45.989151 -26.569156 7.377342 59.145392 -66.176372 -23.309239 35.748022 -26.770642 12.072673 8.249569 21.806725 -7.071656 29.216153 37.164920 4.665035 -49.938506 68.946773 -18.148680 -17.989344 26.167484 9.137370 
0.122030 0.305811 1.010904 92.946687 0.312429 84.757412 -0.880885 1.113469 4.685482 -3.972961 -8.603242 6.321376 3.542803 2.312187 -9.482033 0.000000 -0.000000 0.000000 -2.396449 -2.016523 -1.084760 -1.289429 -0.907003 16.656455 2.890631 -6.348773 -9.101956 0.000000 -0.000000 0.000000 2.271483 0.100934 10.392500 -0.797561 -0.379740 -6.925265 0.017538 -0.329688 -1.393015 5.391847 -2.179037 -12.296178 -2.277369 -1.329964 15.774697 -14.900949 -11.946790 -5.535794 -46.999654 -26.520576 7.722142 58.316223 -65.886934 -22.322784 36.469272 -27.141673 12.262612 4.890298 23.025730 -7.819201 25.682337 39.306952 1.212549 -50.190531 66.041454 -19.062588 -19.038247 26.074814 9.852619 
0.121942 0.306363 1.011591 93.535798 0.412484 84.883415 -0.753622 1.159693 4.775697 -3.974500 -8.941512 5.716628 3.345887 2.223738 -9.138529 0.000000 -0.000000 0.000000 -2.241207 -2.092690 -1.157806 -1.306190 -0.727061 16.590175 2.941322 -6.821243 -9.096515 0.000000 -0.000000 0.000000 2.830016 -0.207264 10.642046 -1.432250 -0.214770 -7.345563 -0.169291 -0.511955 -1.534274 5.894002 -3.219399 -11.991563 -1.904814 -0.607992 15.572993 -14.635420 -12.292866 -5.610307 -47.269338 -26.463889 7.874767 58.700383 -65.807933 -22.759014 38.325025 -27.641965 11.114621 2.008579 23.777036 -9.129691 21.998691 41.076828 -2.613934 -48.354796 62.085508 -19.130905 -22.130656 27.285163 9.362057 
0.122824 0.307189 1.012180 94.645297 0.476611 85.067115 -0.612475 1.142659 4.788816 -4.087583 -9.601090 5.274318 3.144571 2.018554 -8.885592 0.000000 -0.000000 0.000000 -2.150473 -2.357907 -1.046203 -1.297377 -0.497642 16.436487 2.880839 -7.456150 -9.021345 0.000000 -0.000000 0.000000 3.174229 -0.286476 10.350282 -1.931979 -0.327926 -7.337273 -0.314840 -0.995452 -1.604983 6.393390 -4.645844 -11.162247 -1.576292 0.182540 14.868230 -14.539241 -12.584447 -5.401895 -47.370202 -26.245420 7.730682 59.279376 -65.875517 -22.684203 38.570423 -27.355767 10.814732 -1.229540 23.788840 -10.540607 18.317729 41.202075 -6.956859 -49.684882 57.232407 -21.778392 -23.211400 26.620466 8.415945 
0.123367 0.307574 1.012376 95.379449 0.507669 85.175137 -0.553168 1.046447 4.765815 -4.098856 -9.978445 5.039716 3.035682 1.835501 -8.766757 0.000000 -0.000000 0.000000 -2.112803 -2.510884 -0.943872 -1.296729 -0.622953 16.317625 2.958366 -7.764704 -9.114935 0.000000 -0.000000 0.000000 3.178631 -0.410193 10.419977 -2.091809 -0.438791 -7.567360 -0.331858 -1.168410 -1.664306 6.522728 -5.175864 -10.773799 -1.232963 0.585085 14.700737 -14.562012 -12.771273 -5.465981 -47.433386 -25.863564 7.966785 59.749836 -65.795627 -22.969100 39.078260 -27.327940 10.548830 -2.036679 23.594670 -10.655686 15.783602 40.433313 -9.558590 -51.118798 54.265876 -24.261985 -23.061452 25.939294 8.028778 
0.124382 0.308119 1.012731 95.987764 0.511245 85.348594 -0.511383 1.067117 4.917586 -4.049633 -10.395977 4.445259 3.085607 1.529591 -8.589302 0.000000 -0.000000 0.000000 -2.110672 -2.749490 -0.894103 -1.327619 -0.760558 16.098184 3.136287 -7.970652 -9.069270 0.000000 -0.000000 0.000000 3.017002 -0.671198 10.616389 -2.129186 -0.505502 -8.117249 -0.402940 -1.429392 -1.415583 6.859823 -5.015435 -10.857120 -1.379125 0.737117 14.708064 -14.682784 -11.438152 -5.731483 -47.716404 -26.039413 8.182675 59.039500 -66.480635 -21.921301 38.435310 -26.676056 10.396544 -2.015065 22.064413 -11.245333 14.135675 40.404073 -11.624720 -51.609932 50.803875 -26.026468 -23.467278 25.246522 8.755970 
0.126078 0.308562 1.012491 96.686294 0.506370 85.471976 -0.447417 1.023184 5.074091 -4.022764 -10.769265 3.996274 2.961272 1.209392 -8.355981 0.000000 -0.000000 0.000000 -2.084667 -3.086700 -0.717050 -1.427890 -0.952347 15.902099 3.236191 -8.253225 -9.091358 0.000000 -0.000000 0.000000 2.643739 -0.525626 10.183439 -1.905703 -0.846346 -7.892634 -0.387795 -1.721662 -1.430526 6.870388 -4.927726 -10.585385 -1.234437 0.680365 14.646576 -15.160669 -10.937880 -5.366430 -47.384436 -25.874884 7.989227 59.058520 -66.751108 -21.929274 37.911879 -26.568010 10.237642 -1.146966 20.550940 -11.295374 13.462339 38.675265 -12.870416 -53.621889 48.773470 -28.318542 -22.427442 24.327204 8.719011 
0.127027 0.308744 1.012380 97.335514 0.535990 85.649144 -0.407081 0.798622 4.879487 -3.979207 -11.191977 4.112461 3.001938 0.781604 -8.320664 0.000000 -0.000000 0.000000 -2.043587 -3.393531 -0.653935 -1.439198 -1.364636 15.656596 3.324748 -8.614663 -9.179073 0.000000 -0.000000 0.000000 2.146419 -0.525433 10.011748 -1.584284 -1.136517 -7.976115 -0.370418 -1.895183 -1.253081 6.926536 -4.954301 -10.314918 -1.155699 0.119007 14.253750 -15.744044 -10.143905 -5.142003 -46.982203 -25.886055 7.891410 58.922748 -67.080773 -21.728186 37.124784 -26.161113 10.499362 0.643836 18.721948 -11.102274 13.888784 36.504861 -12.823115 -55.576188 47.338256 -30.803368 -22.295784 23.963517 8.979899 
0.127561 0.308348 1.012335 97.516753 0.538398 85.774440 -0.334430 0.648307 4.828290 -4.013197 -11.247151 3.977358 3.097672 0.561632 -8.322438 0.000000 -0.000000 0.000000 -1.985949 -3.537378 -0.626609 -1.472690 -1.515285 15.478550 3.371019 -8.811200 -9.190128 0.000000 -0.000000 0.000000 1.630554 -0.334762 9.835625 -1.199590 -1.322288 -8.061970 -0.428505 -2.230647 -0.791204 6.806471 -4.118228 -10.402256 -1.240027 -0.316387 14.222205 -16.247076 -8.719945 -5.333381 -46.784167 -26.139104 7.771321 57.807384 -67.591428 -20.468644 37.553628 -25.767803 9.805352 2.978264 16.174964 -10.578106 15.411429 34.926187 -12.006791 -57.459573 46.682059 -32.485902 -23.690647 23.883747 8.473729 
0.127746 0.307202 1.011767 97.851620 0.537890 85.977079 -0.212158 0.393999 4.252759 -4.196462 -11.342702 4.704614 3.231298 0.046907 -8.466165 0.000000 -0.000000 0.000000 -1.923524 -3.685617 -0.843713 -1.554625 -2.035915 15.643224 3.354943 -8.706069 -9.355586 0.000000 -0.000000 0.000000 0.898919 -0.298095 9.585758 -0.543829 -1.728899 -7.920189 -0.621754 -2.554050 -0.427157 6.729205 -2.087879 -10.642783 -1.716631 -1.215201 14.443437 -16.998973 -6.937541 -5.146363 -45.891574 -26.614462 7.029157 56.144987 -68.256285 -18.676029 34.709269 -24.644856 9.949419 6.813751 12.975174 -9.817316 18.982299 33.511267 -10.145766 -59.976577 46.184165 -34.215832 -23.973573 23.652382 7.652525 
0.128461 0.305805 1.011518 97.866873 0.544968 86.244669 -0.106154 0.262725 3.863673 -4.295514 -11.562863 4.986714 3.348867 -0.112011 -8.521781 0.000000 -0.000000 0.000000 -1.856540 -3.671845 -1.066769 -1.564018 -2.315288 15.621051 3.404448 -8.570552 -9.370104 0.000000 -0.000000 0.000000 0.205397 -0.221639 9.367051 0.074170 -2.026321 -8.006134 -0.600734 -2.871864 -0.033843 6.601114 -0.467180 -11.139803 -2.194186 -1.867466 14.761413 -17.388466 -5.183023 -5.191142 -45.873562 -26.859258 6.725801 55.758997 -68.798728 -17.763529 34.139347 -24.010123 10.018096 9.770087 10.063787 -9.476020 23.391627 32.952134 -7.629077 -61.351668 46.593775 -34.756194 -23.419249 22.799913 6.825715 
0.128324 0.303765 1.011104 97.514869 0.584708 85.990084 0.039905 0.258744 4.114257 -4.274003 -11.170120 4.986620 3.238944 -0.309924 -8.537236 0.000000 -0.000000 0.000000 -1.804140 -3.471334 -0.856911 -1.530930 -2.636699 15.654466 3.300162 -8.241711 -9.343404 0.000000 -0.000000 0.000000 -0.520685 -0.077336 9.031377 0.801159 -2.428349 -6.920211 -0.525339 -2.934297 0.152995 6.356139 1.282365 -11.266330 -2.707407 -2.720354 14.408625 -17.683192 -4.368857 -4.766446 -45.208858 -27.135831 6.029547 56.320734 -68.712225 -18.755083 34.251438 -24.010204 9.705617 12.715831 8.390960 -8.752456 27.773238 32.133801 -5.063362 -62.943462 47.012236 -35.596542 -23.681989 22.350442 6.134615 
0.128699 0.301593 1.011047 96.834565 0.598299 86.011701 0.141951 0.390820 4.082727 -4.301147 -10.926349 5.073809 3.410427 -0.149317 -8.689609 0.000000 -0.000000 0.000000 -1.710162 -3.132158 -1.016947 -1.545942 -2.896241 15.746485 3.275942 -7.806024 -9.435473 0.000000 -0.000000 0.000000 -1.169530 0.022028 9.069805 1.401332 -2.521432 -6.928189 -0.354328 -2.691970 0.144801 6.055693 2.778803 -11.352005 -3.129749 -3.311813 14.882690 -17.909042 -3.670078 -4.566503 -45.062126 -26.962878 5.528471 55.620145 -68.899073 -18.122471 34.481285 -23.733873 9.843035 15.618922 7.003420 -7.709305 32.375051 30.522395 -2.111383 -65.641298 48.317342 -36.887694 -24.511202 22.498148 5.871330 
0.128871 0.299627 1.010850 96.140308 0.678482 86.012996 0.242409 0.274532 4.030696 -4.202935 -10.334086 5.217612 3.454005 0.057841 -8.821138 0.000000 -0.000000 0.000000 -1.563143 -2.991628 -1.080741 -1.549033 -2.938685 15.733027 3.269718 -7.330289 -9.365491 0.000000 -0.000000 0.000000 -1.497597 0.216045 8.932440 1.969797 -2.638308 -6.814177 -0.301044 -2.695782 0.406288 5.716257 4.316973 -11.433251 -3.740426 -4.004587 15.083358 -18.079814 -2.430778 -4.719504 -45.150457 -27.106934 5.393560 54.110046 -69.426233 -16.545682 34.645983 -23.002002 9.417586 18.220576 5.280388 -7.360893 37.375759 29.771038 1.690657 -66.395305 51.523000 -36.425272 -26.867088 22.981432 5.058456 
0.128428 0.297972 1.010603 94.888912 0.718107 85.902105 0.303011 0.427466 4.156493 -4.143635 -9.493420 5.347951 3.528003 0.388886 -8.876737 0.000000 -0.000000 0.000000 -1.504529 -2.485767 -1.211762 -1.478394 -2.791833 15.968282 3.165140 -6.777501 -9.349796 0.000000 -0.000000 0.000000 -1.960679 0.456630 8.877294 2.555648 -2.523407 -6.212477 0.070940 -2.351750 0.190480 5.218195 5.374306 -11.717260 -4.188443 -4.240514 15.618671 -18.224989 -2.545012 -4.238863 -45.203524 -26.691175 5.126616 56.234006 -69.385133 -18.553798 34.218989 -22.981040 9.402227 20.419780 5.514873 -6.176268 40.190446 27.985224 4.616436 -68.421573 55.389249 -36.697206 -25.364764 23.475371 4.623872 
0.127904 0.296707 1.009955 93.828920 0.738907 85.868851 0.350126 0.726679 4.195944 -4.163726 -8.962220 5.401529 3.584253 1.007904 -8.983821 0.000000 -0.000000 0.000000 -1.519985 -2.384657 -1.525833 -1.331712 -2.346324 16.338556 3.077802 -6.276191 -9.382906 0.000000 -0.000000 0.000000 -2.182059 0.536321 8.348871 2.922673 -2.484822 -5.789162 0.311532 -2.109018 0.500014 4.728255 5.927194 -11.577253 -4.313081 -3.924779 15.897662 -18.275883 -2.479938 -4.020942 -45.467042 -26.771601 5.317000 57.308261 -68.890438 -20.275155 37.258061 -24.305106 9.958234 21.779303 5.680808 -5.167156 41.835419 27.460845 7.417174 -66.371610 60.260319 -33.181056 -22.740514 24.691438 6.248106 
